<svg width="247" height="253" viewBox="0 0 247 253" fill="none" xmlns="http://www.w3.org/2000/svg">
<path d="M0.104727 248.938C-0.0643861 249.156 -0.0245157 249.47 0.193772 249.64L3.75101 252.396C3.9693 252.565 4.28338 252.525 4.45249 252.307C4.62163 252.088 4.58176 251.774 4.36348 251.605L1.20148 249.155L3.65131 245.993C3.82045 245.775 3.78059 245.461 3.5623 245.292C3.34401 245.123 3.02996 245.163 2.86082 245.381L0.104727 248.938ZM141.206 0.496336L141.146 0.992702C192.928 7.26935 223.46 24.1978 236.866 46.3435C250.256 68.4642 246.664 95.973 229.766 123.683C195.961 179.114 109.101 234.958 0.437037 248.748L0.499992 249.244L0.562948 249.74C109.444 235.923 196.617 179.96 230.619 124.203C247.624 96.319 251.379 68.388 237.721 45.8257C224.078 23.2885 193.164 6.29063 141.266 -2.89018e-05L141.206 0.496336Z" fill="#C1C5CD"/>
</svg>
