<svg width="30" height="30" viewBox="0 0 30 30" fill="none" xmlns="http://www.w3.org/2000/svg">
<path d="M7.32135 26.8477V4.8816C7.32135 4.23429 7.57849 3.61349 8.03621 3.15578C8.49392 2.69806 9.11472 2.44092 9.76203 2.44092H19.5247C20.172 2.44092 20.7928 2.69806 21.2506 3.15578C21.7083 3.61349 21.9654 4.23429 21.9654 4.8816V26.8477H7.32135Z" stroke="#2563EB" stroke-width="1.83051" stroke-linecap="round" stroke-linejoin="round"/>
<path d="M7.32179 14.644H4.88111C4.2338 14.644 3.613 14.9012 3.15529 15.3589C2.69757 15.8166 2.44043 16.4374 2.44043 17.0847V24.4068C2.44043 25.0541 2.69757 25.6749 3.15529 26.1326C3.613 26.5903 4.2338 26.8474 4.88111 26.8474H7.32179" stroke="#2563EB" stroke-width="1.83051" stroke-linecap="round" stroke-linejoin="round"/>
<path d="M21.9658 10.9829H24.4065C25.0538 10.9829 25.6746 11.2401 26.1323 11.6978C26.59 12.1555 26.8472 12.7763 26.8472 13.4236V24.4066C26.8472 25.0539 26.59 25.6747 26.1323 26.1325C25.6746 26.5902 25.0538 26.8473 24.4065 26.8473H21.9658" stroke="#2563EB" stroke-width="1.83051" stroke-linecap="round" stroke-linejoin="round"/>
<path d="M12.2031 7.32178H17.0845" stroke="#2563EB" stroke-width="1.83051" stroke-linecap="round" stroke-linejoin="round"/>
<path d="M12.2031 12.2036H17.0845" stroke="#2563EB" stroke-width="1.83051" stroke-linecap="round" stroke-linejoin="round"/>
<path d="M12.2031 17.0845H17.0845" stroke="#2563EB" stroke-width="1.83051" stroke-linecap="round" stroke-linejoin="round"/>
<path d="M12.2031 21.9663H17.0845" stroke="#2563EB" stroke-width="1.83051" stroke-linecap="round" stroke-linejoin="round"/>
</svg>
