<svg width="44" height="44" viewBox="0 0 44 44" fill="none" xmlns="http://www.w3.org/2000/svg">
<mask id="path-1-inside-1_1734_5198" fill="white">
<path d="M0 22C0 9.84974 9.84974 0 22 0C34.1503 0 44 9.84974 44 22C44 34.1503 34.1503 44 22 44C9.84974 44 0 34.1503 0 22Z"/>
</mask>
<path d="M0 22M44 22M44 22M0 22M22 0M44 22M22 44M0 22M22 44V43.2C10.2916 43.2 0.8 33.7084 0.8 22H0H-0.8C-0.8 34.5921 9.40791 44.8 22 44.8V44ZM44 22H43.2C43.2 33.7084 33.7084 43.2 22 43.2V44V44.8C34.5921 44.8 44.8 34.5921 44.8 22H44ZM22 0V0.8C33.7084 0.8 43.2 10.2916 43.2 22H44H44.8C44.8 9.40791 34.5921 -0.8 22 -0.8V0ZM22 0V-0.8C9.40791 -0.8 -0.8 9.40791 -0.8 22H0H0.8C0.8 10.2916 10.2916 0.8 22 0.8V0Z" fill="#2563EB" fill-opacity="0.28" mask="url(#path-1-inside-1_1734_5198)"/>
<path d="M27.8333 14.5H16.1667C15.2462 14.5 14.5 15.2462 14.5 16.1667V27.8333C14.5 28.7538 15.2462 29.5 16.1667 29.5H27.8333C28.7538 29.5 29.5 28.7538 29.5 27.8333V16.1667C29.5 15.2462 28.7538 14.5 27.8333 14.5Z" stroke="#2563EB" stroke-width="1.25" stroke-linecap="round" stroke-linejoin="round"/>
<path d="M14.5 19.5H29.5" stroke="#2563EB" stroke-width="1.25" stroke-linecap="round" stroke-linejoin="round"/>
<path d="M14.5 24.5H29.5" stroke="#2563EB" stroke-width="1.25" stroke-linecap="round" stroke-linejoin="round"/>
<path d="M19.5 14.5V29.5" stroke="#2563EB" stroke-width="1.25" stroke-linecap="round" stroke-linejoin="round"/>
<path d="M24.5 14.5V29.5" stroke="#2563EB" stroke-width="1.25" stroke-linecap="round" stroke-linejoin="round"/>
</svg>
