<svg width="31" height="31" viewBox="0 0 31 31" fill="none" xmlns="http://www.w3.org/2000/svg">
<path d="M15.498 9.04175V27.1251" stroke="#2563EB" stroke-width="1.52542" stroke-linecap="round" stroke-linejoin="round"/>
<path d="M3.87565 23.2498C3.53308 23.2498 3.20454 23.1137 2.9623 22.8714C2.72007 22.6292 2.58398 22.3007 2.58398 21.9581V5.16642C2.58398 4.82385 2.72007 4.49531 2.9623 4.25308C3.20454 4.01084 3.53308 3.87476 3.87565 3.87476H10.334C11.7043 3.87476 13.0184 4.4191 13.9874 5.38804C14.9563 6.35697 15.5006 7.67114 15.5006 9.04142C15.5006 7.67114 16.045 6.35697 17.0139 5.38804C17.9829 4.4191 19.297 3.87476 20.6673 3.87476H27.1256C27.4682 3.87476 27.7968 4.01084 28.039 4.25308C28.2812 4.49531 28.4173 4.82385 28.4173 5.16642V21.9581C28.4173 22.3007 28.2812 22.6292 28.039 22.8714C27.7968 23.1137 27.4682 23.2498 27.1256 23.2498H19.3756C18.3479 23.2498 17.3623 23.658 16.6356 24.3847C15.9089 25.1114 15.5006 26.097 15.5006 27.1248C15.5006 26.097 15.0924 25.1114 14.3657 24.3847C13.639 23.658 12.6534 23.2498 11.6256 23.2498H3.87565Z" stroke="#2563EB" stroke-width="1.52542" stroke-linecap="round" stroke-linejoin="round"/>
</svg>
