<svg width="48" height="48" viewBox="0 0 48 48" fill="none" xmlns="http://www.w3.org/2000/svg">
<path d="M12 17C12 13.5522 13.3696 10.2456 15.8076 7.80761C18.2456 5.36964 21.5522 4 25 4C28.4478 4 31.7544 5.36964 34.1924 7.80761C36.6304 10.2456 38 13.5522 38 17C38 29 26 29 26 37C26 37.9193 25.8189 38.8295 25.4672 39.6788C25.1154 40.5281 24.5998 41.2997 23.9497 41.9497C23.2997 42.5998 22.5281 43.1154 21.6788 43.4672C20.8295 43.8189 19.9193 44 19 44C18.0807 44 17.1705 43.8189 16.3212 43.4672C15.4719 43.1154 14.7003 42.5998 14.0503 41.9497C13.4002 41.2997 12.8846 40.5281 12.5328 39.6788C12.1811 38.8295 12 37.9193 12 37" stroke="#2563EB" stroke-width="2.66667" stroke-linecap="round" stroke-linejoin="round"/>
<path d="M30 17C30 15.6739 29.4732 14.4021 28.5355 13.4645C27.5979 12.5268 26.3261 12 25 12C23.6739 12 22.4021 12.5268 21.4645 13.4645C20.5268 14.4021 20 15.6739 20 17V19C21.0609 19 22.0783 19.4214 22.8284 20.1716C23.5786 20.9217 24 21.9391 24 23C24 24.0609 23.5786 25.0783 22.8284 25.8284C22.0783 26.5786 21.0609 27 20 27" stroke="#2563EB" stroke-width="2.66667" stroke-linecap="round" stroke-linejoin="round"/>
</svg>
