<svg width="44" height="44" viewBox="0 0 44 44" fill="none" xmlns="http://www.w3.org/2000/svg">
<mask id="path-1-inside-1_1734_5262" fill="white">
<path d="M0 22C0 9.84974 9.84974 0 22 0C34.1503 0 44 9.84974 44 22C44 34.1503 34.1503 44 22 44C9.84974 44 0 34.1503 0 22Z"/>
</mask>
<path d="M0 22M44 22M44 22M0 22M22 0M44 22M22 44M0 22M22 44V43.2C10.2916 43.2 0.8 33.7084 0.8 22H0H-0.8C-0.8 34.5921 9.40791 44.8 22 44.8V44ZM44 22H43.2C43.2 33.7084 33.7084 43.2 22 43.2V44V44.8C34.5921 44.8 44.8 34.5921 44.8 22H44ZM22 0V0.8C33.7084 0.8 43.2 10.2916 43.2 22H44H44.8C44.8 9.40791 34.5921 -0.8 22 -0.8V0ZM22 0V-0.8C9.40791 -0.8 -0.8 9.40791 -0.8 22H0H0.8C0.8 10.2916 10.2916 0.8 22 0.8V0Z" fill="#2563EB" fill-opacity="0.28" mask="url(#path-1-inside-1_1734_5262)"/>
<path d="M22.0003 30.3334C26.6027 30.3334 30.3337 26.6025 30.3337 22.0001C30.3337 17.3977 26.6027 13.6667 22.0003 13.6667C17.398 13.6667 13.667 17.3977 13.667 22.0001C13.667 26.6025 17.398 30.3334 22.0003 30.3334Z" stroke="#2563EB" stroke-width="1.25" stroke-linecap="round" stroke-linejoin="round"/>
<path d="M22.0003 13.6667C19.8605 15.9135 18.667 18.8974 18.667 22.0001C18.667 25.1028 19.8605 28.0866 22.0003 30.3334C24.1401 28.0866 25.3337 25.1028 25.3337 22.0001C25.3337 18.8974 24.1401 15.9135 22.0003 13.6667Z" stroke="#2563EB" stroke-width="1.25" stroke-linecap="round" stroke-linejoin="round"/>
<path d="M13.667 22H30.3337" stroke="#2563EB" stroke-width="1.25" stroke-linecap="round" stroke-linejoin="round"/>
</svg>
