<svg width="48" height="48" viewBox="0 0 48 48" fill="none" xmlns="http://www.w3.org/2000/svg">
<path d="M22 34L26 38C26.394 38.394 26.8617 38.7065 27.3764 38.9197C27.8912 39.1329 28.4428 39.2426 29 39.2426C29.5572 39.2426 30.1088 39.1329 30.6236 38.9197C31.1383 38.7065 31.606 38.394 32 38C32.394 37.606 32.7065 37.1383 32.9197 36.6236C33.1329 36.1088 33.2426 35.5572 33.2426 35C33.2426 34.4428 33.1329 33.8912 32.9197 33.3764C32.7065 32.8617 32.394 32.394 32 32" stroke="#2563EB" stroke-width="2.66667" stroke-linecap="round" stroke-linejoin="round"/>
<path d="M28.0005 28L33.0005 33C33.7961 33.7957 34.8752 34.2427 36.0005 34.2427C37.1257 34.2427 38.2048 33.7957 39.0005 33C39.7961 32.2044 40.2431 31.1252 40.2431 30C40.2431 28.8748 39.7961 27.7957 39.0005 27L31.2405 19.24C30.1154 18.1164 28.5905 17.4853 27.0005 17.4853C25.4104 17.4853 23.8855 18.1164 22.7605 19.24L21.0005 21C20.2048 21.7957 19.1257 22.2427 18.0005 22.2427C16.8752 22.2427 15.7961 21.7957 15.0005 21C14.2048 20.2044 13.7578 19.1252 13.7578 18C13.7578 16.8748 14.2048 15.7957 15.0005 15L20.6205 9.38003C22.4449 7.56032 24.8242 6.40113 27.3817 6.08598C29.9392 5.77082 32.5288 6.31769 34.7405 7.64003L35.6805 8.20003C36.532 8.714 37.5445 8.89226 38.5205 8.70003L42.0005 8.00003" stroke="#2563EB" stroke-width="2.66667" stroke-linecap="round" stroke-linejoin="round"/>
<path d="M42 6L44 28H40" stroke="#2563EB" stroke-width="2.66667" stroke-linecap="round" stroke-linejoin="round"/>
<path d="M6 6L4 28L17 41C17.7956 41.7957 18.8748 42.2426 20 42.2426C21.1252 42.2426 22.2044 41.7957 23 41C23.7956 40.2044 24.2426 39.1252 24.2426 38C24.2426 36.8748 23.7956 35.7957 23 35" stroke="#2563EB" stroke-width="2.66667" stroke-linecap="round" stroke-linejoin="round"/>
<path d="M6 8H22" stroke="#2563EB" stroke-width="2.66667" stroke-linecap="round" stroke-linejoin="round"/>
</svg>
