<svg width="44" height="44" viewBox="0 0 44 44" fill="none" xmlns="http://www.w3.org/2000/svg">
<mask id="path-1-inside-1_1734_5232" fill="white">
<path d="M0 22C0 9.84974 9.84974 0 22 0C34.1503 0 44 9.84974 44 22C44 34.1503 34.1503 44 22 44C9.84974 44 0 34.1503 0 22Z"/>
</mask>
<path d="M0 22M44 22M44 22M0 22M22 0M44 22M22 44M0 22M22 44V43.2C10.2916 43.2 0.8 33.7084 0.8 22H0H-0.8C-0.8 34.5921 9.40791 44.8 22 44.8V44ZM44 22H43.2C43.2 33.7084 33.7084 43.2 22 43.2V44V44.8C34.5921 44.8 44.8 34.5921 44.8 22H44ZM22 0V0.8C33.7084 0.8 43.2 10.2916 43.2 22H44H44.8C44.8 9.40791 34.5921 -0.8 22 -0.8V0ZM22 0V-0.8C9.40791 -0.8 -0.8 9.40791 -0.8 22H0H0.8C0.8 10.2916 10.2916 0.8 22 0.8V0Z" fill="#2563EB" fill-opacity="0.28" mask="url(#path-1-inside-1_1734_5232)"/>
<path d="M30.3337 22.0001H28.267C27.9028 21.9993 27.5484 22.1178 27.2579 22.3376C26.9675 22.5573 26.757 22.8661 26.6587 23.2167L24.7003 30.1834C24.6877 30.2267 24.6614 30.2647 24.6253 30.2917C24.5893 30.3188 24.5454 30.3334 24.5003 30.3334C24.4552 30.3334 24.4114 30.3188 24.3753 30.2917C24.3393 30.2647 24.3129 30.2267 24.3003 30.1834L19.7003 13.8167C19.6877 13.7735 19.6614 13.7355 19.6253 13.7084C19.5893 13.6814 19.5454 13.6667 19.5003 13.6667C19.4552 13.6667 19.4114 13.6814 19.3753 13.7084C19.3393 13.7355 19.3129 13.7735 19.3003 13.8167L17.342 20.7834C17.244 21.1327 17.0348 21.4405 16.746 21.6601C16.4573 21.8797 16.1048 21.999 15.742 22.0001H13.667" stroke="#2563EB" stroke-width="1.25" stroke-linecap="round" stroke-linejoin="round"/>
</svg>
