<svg width="34" height="34" viewBox="0 0 34 34" fill="none" xmlns="http://www.w3.org/2000/svg">
<path d="M22.6654 29.75V26.9167C22.6654 25.4138 22.0683 23.9724 21.0056 22.9097C19.9429 21.847 18.5016 21.25 16.9987 21.25H8.4987C6.9958 21.25 5.55447 21.847 4.49176 22.9097C3.42905 23.9724 2.83203 25.4138 2.83203 26.9167V29.75" stroke="#2563EB" stroke-width="2.13559" stroke-linecap="round" stroke-linejoin="round"/>
<path d="M12.7487 15.5833C15.8783 15.5833 18.4154 13.0463 18.4154 9.91667C18.4154 6.78705 15.8783 4.25 12.7487 4.25C9.61908 4.25 7.08203 6.78705 7.08203 9.91667C7.08203 13.0463 9.61908 15.5833 12.7487 15.5833Z" stroke="#2563EB" stroke-width="2.13559" stroke-linecap="round" stroke-linejoin="round"/>
<path d="M31.1699 29.7499V26.9166C31.169 25.661 30.7511 24.4413 29.9819 23.449C29.2126 22.4567 28.1356 21.748 26.9199 21.4341" stroke="#2563EB" stroke-width="2.13559" stroke-linecap="round" stroke-linejoin="round"/>
<path d="M22.6699 4.43408C23.8888 4.74618 24.9692 5.45508 25.7407 6.44902C26.5123 7.44297 26.931 8.66542 26.931 9.92367C26.931 11.1819 26.5123 12.4044 25.7407 13.3983C24.9692 14.3923 23.8888 15.1012 22.6699 15.4132" stroke="#2563EB" stroke-width="2.13559" stroke-linecap="round" stroke-linejoin="round"/>
</svg>
