<svg width="35" height="35" viewBox="0 0 35 35" fill="none" xmlns="http://www.w3.org/2000/svg">
<path d="M2.93665 17.5801C2.81799 17.2604 2.81799 16.9088 2.93665 16.5892C4.09229 13.787 6.05392 11.3912 8.57286 9.70528C11.0918 8.01938 14.0546 7.11938 17.0857 7.11938C20.1167 7.11938 23.0795 8.01938 25.5985 9.70528C28.1174 11.3912 30.079 13.787 31.2347 16.5892C31.3533 16.9088 31.3533 17.2604 31.2347 17.5801C30.079 20.3822 28.1174 22.778 25.5985 24.4639C23.0795 26.1498 20.1167 27.0498 17.0857 27.0498C14.0546 27.0498 11.0918 26.1498 8.57286 24.4639C6.05392 22.778 4.09229 20.3822 2.93665 17.5801Z" stroke="#2563EB" stroke-width="2.13559" stroke-linecap="round" stroke-linejoin="round"/>
<path d="M17.0856 21.3558C19.4446 21.3558 21.3568 19.4436 21.3568 17.0847C21.3568 14.7258 19.4446 12.8135 17.0856 12.8135C14.7267 12.8135 12.8145 14.7258 12.8145 17.0847C12.8145 19.4436 14.7267 21.3558 17.0856 21.3558Z" stroke="#2563EB" stroke-width="2.13559" stroke-linecap="round" stroke-linejoin="round"/>
</svg>
