<svg width="54" height="54" viewBox="0 0 54 54" fill="none" xmlns="http://www.w3.org/2000/svg">
<mask id="path-1-inside-1_1977_5901" fill="white">
<path d="M0 26.8475C0 12.02 12.02 0 26.8475 0C41.6749 0 53.6949 12.02 53.6949 26.8475C53.6949 41.6749 41.6749 53.6949 26.8475 53.6949C12.02 53.6949 0 41.6749 0 26.8475Z"/>
</mask>
<path d="M0 26.8475C0 12.02 12.02 0 26.8475 0C41.6749 0 53.6949 12.02 53.6949 26.8475C53.6949 41.6749 41.6749 53.6949 26.8475 53.6949C12.02 53.6949 0 41.6749 0 26.8475Z" fill="white"/>
<path d="M0 26.8475M53.6949 26.8475M53.6949 26.8475M0 26.8475M26.8475 0M53.6949 26.8475M26.8475 53.6949M0 26.8475M26.8475 53.6949V52.7186C12.5592 52.7186 0.976271 41.1357 0.976271 26.8475H0H-0.976271C-0.976271 42.2141 11.4808 54.6712 26.8475 54.6712V53.6949ZM53.6949 26.8475H52.7186C52.7186 41.1357 41.1357 52.7186 26.8475 52.7186V53.6949V54.6712C42.2141 54.6712 54.6712 42.2141 54.6712 26.8475H53.6949ZM26.8475 0V0.976271C41.1357 0.976271 52.7186 12.5592 52.7186 26.8475H53.6949H54.6712C54.6712 11.4808 42.2141 -0.976271 26.8475 -0.976271V0ZM26.8475 0V-0.976271C11.4808 -0.976271 -0.976271 11.4808 -0.976271 26.8475H0H0.976271C0.976271 12.5592 12.5592 0.976271 26.8475 0.976271V0Z" fill="#2563EB" fill-opacity="0.28" mask="url(#path-1-inside-1_1977_5901)"/>
<path d="M26.8477 22.6812V34.3478" stroke="#2563EB" stroke-width="1.25" stroke-linecap="round" stroke-linejoin="round"/>
<path d="M19.347 31.8477C19.126 31.8477 18.914 31.7599 18.7577 31.6036C18.6015 31.4473 18.5137 31.2353 18.5137 31.0143V20.181C18.5137 19.96 18.6015 19.748 18.7577 19.5917C18.914 19.4355 19.126 19.3477 19.347 19.3477H23.5137C24.3977 19.3477 25.2456 19.6988 25.8707 20.324C26.4958 20.9491 26.847 21.7969 26.847 22.681C26.847 21.7969 27.1982 20.9491 27.8233 20.324C28.4484 19.6988 29.2963 19.3477 30.1803 19.3477H34.347C34.568 19.3477 34.78 19.4355 34.9363 19.5917C35.0925 19.748 35.1803 19.96 35.1803 20.181V31.0143C35.1803 31.2353 35.0925 31.4473 34.9363 31.6036C34.78 31.7599 34.568 31.8477 34.347 31.8477H29.347C28.684 31.8477 28.0481 32.111 27.5792 32.5799C27.1104 33.0487 26.847 33.6846 26.847 34.3477C26.847 33.6846 26.5836 33.0487 26.1148 32.5799C25.6459 32.111 25.01 31.8477 24.347 31.8477H19.347Z" stroke="#2563EB" stroke-width="1.25" stroke-linecap="round" stroke-linejoin="round"/>
</svg>
