<svg width="54" height="54" viewBox="0 0 54 54" fill="none" xmlns="http://www.w3.org/2000/svg">
<mask id="path-1-inside-1_1915_6277" fill="white">
<path d="M0 26.8475C0 12.02 12.02 0 26.8475 0C41.6749 0 53.6949 12.02 53.6949 26.8475C53.6949 41.6749 41.6749 53.6949 26.8475 53.6949C12.02 53.6949 0 41.6749 0 26.8475Z"/>
</mask>
<path d="M0 26.8475C0 12.02 12.02 0 26.8475 0C41.6749 0 53.6949 12.02 53.6949 26.8475C53.6949 41.6749 41.6749 53.6949 26.8475 53.6949C12.02 53.6949 0 41.6749 0 26.8475Z" fill="white"/>
<path d="M0 26.8475M53.6949 26.8475M53.6949 26.8475M0 26.8475M26.8475 0M53.6949 26.8475M26.8475 53.6949M0 26.8475M26.8475 53.6949V52.7186C12.5592 52.7186 0.976271 41.1357 0.976271 26.8475H0H-0.976271C-0.976271 42.2141 11.4808 54.6712 26.8475 54.6712V53.6949ZM53.6949 26.8475H52.7186C52.7186 41.1357 41.1357 52.7186 26.8475 52.7186V53.6949V54.6712C42.2141 54.6712 54.6712 42.2141 54.6712 26.8475H53.6949ZM26.8475 0V0.976271C41.1357 0.976271 52.7186 12.5592 52.7186 26.8475H53.6949H54.6712C54.6712 11.4808 42.2141 -0.976271 26.8475 -0.976271V0ZM26.8475 0V-0.976271C11.4808 -0.976271 -0.976271 11.4808 -0.976271 26.8475H0H0.976271C0.976271 12.5592 12.5592 0.976271 26.8475 0.976271V0Z" fill="#2563EB" fill-opacity="0.28" mask="url(#path-1-inside-1_1915_6277)"/>
<path d="M33.9698 28.8813C35.485 27.3965 37.0206 25.6169 37.0206 23.288C37.0206 21.8046 36.4313 20.382 35.3824 19.333C34.3335 18.2841 32.9108 17.6948 31.4274 17.6948C29.6376 17.6948 28.3766 18.2033 26.8511 19.7287C25.3257 18.2033 24.0647 17.6948 22.2749 17.6948C20.7914 17.6948 19.3688 18.2841 18.3199 19.333C17.2709 20.382 16.6816 21.8046 16.6816 23.288C16.6816 25.627 18.2071 27.4067 19.7325 28.8813L26.8511 35.9999L33.9698 28.8813Z" stroke="#2563EB" stroke-width="1.52542" stroke-linecap="round" stroke-linejoin="round"/>
<path d="M17.9199 26.8469H24.3064L24.8148 25.83L26.8487 30.4062L28.8826 23.2876L30.4081 26.8469H35.7674" stroke="#2563EB" stroke-width="1.52542" stroke-linecap="round" stroke-linejoin="round"/>
</svg>
