<svg width="125" height="125" viewBox="0 0 125 125" fill="none" xmlns="http://www.w3.org/2000/svg">
<path d="M62.366 18.9639C37.7293 18.9639 17.7578 38.3958 17.7578 62.3664C17.7578 86.337 37.7293 105.769 62.366 105.769C87.0027 105.769 106.974 86.3373 106.974 62.3664C106.974 38.3956 87.0024 18.9639 62.366 18.9639ZM62.366 75.0691C49.9017 75.0691 39.3884 69.4557 36.1118 61.784C39.3887 54.1126 49.9019 48.499 62.366 48.499C74.8301 48.499 85.3438 54.1124 88.6202 61.784C85.3436 69.4555 74.8301 75.0691 62.366 75.0691Z" fill="#578BFF"/>
<path d="M62.3657 70.5956C67.0367 70.5956 70.8232 66.9113 70.8232 62.3666C70.8232 57.8219 67.0367 54.1377 62.3657 54.1377C57.6948 54.1377 53.9082 57.8219 53.9082 62.3666C53.9082 66.9113 57.6948 70.5956 62.3657 70.5956Z" fill="#578BFF"/>
</svg>
