<svg width="124" height="125" viewBox="0 0 124 125" fill="none" xmlns="http://www.w3.org/2000/svg">
<path d="M37.2094 47.9767C44.6724 46.1985 49.2941 38.6504 47.5324 31.1177C45.7706 23.5849 38.2924 18.9199 30.8294 20.6982C23.3664 22.4764 18.7446 30.0245 20.5064 37.5572C22.2682 45.09 29.7463 49.755 37.2094 47.9767Z" fill="#578BFF"/>
<path d="M71.6071 44.2476C77.0294 38.7746 77.0294 29.9012 71.6071 24.4282C66.1848 18.9552 57.3936 18.9552 51.9713 24.4282C46.549 29.9012 46.549 38.7746 51.9713 44.2476C57.3936 49.7206 66.1848 49.7206 71.6071 44.2476Z" fill="#578BFF"/>
<path d="M37.2094 76.0051C44.6724 74.2268 49.2941 66.6787 47.5324 59.146C45.7706 51.6132 38.2924 46.9483 30.8294 48.7265C23.3664 50.5047 18.7446 58.0528 20.5064 65.5856C22.2682 73.1183 29.7463 77.7833 37.2094 76.0051Z" fill="#578BFF"/>
<path d="M71.6066 72.2757C77.0288 66.8029 77.0288 57.9296 71.6066 52.4567C66.1844 46.9838 57.3933 46.9838 51.9711 52.4567C46.5489 57.9296 46.5489 66.8029 51.9711 72.2757C57.3933 77.7486 66.1844 77.7486 71.6066 72.2757Z" fill="#578BFF"/>
<path d="M99.3757 44.2476C104.798 38.7746 104.798 29.9012 99.3757 24.4282C93.9534 18.9552 85.1621 18.9552 79.7398 24.4282C74.3175 29.9012 74.3175 38.7746 79.7398 44.2476C85.1621 49.7206 93.9534 49.7206 99.3757 44.2476Z" fill="#578BFF"/>
<path d="M92.7474 76.0051C100.21 74.2268 104.832 66.6787 103.07 59.146C101.309 51.6132 93.8305 46.9483 86.3675 48.7265C78.9045 50.5047 74.2827 58.0528 76.0445 65.5856C77.8062 73.1183 85.2844 77.7833 92.7474 76.0051Z" fill="#578BFF"/>
<path d="M43.8371 100.304C49.2593 94.8312 49.2593 85.9579 43.8371 80.485C38.4149 75.0121 29.6238 75.0121 24.2016 80.485C18.7794 85.9579 18.7794 94.8312 24.2016 100.304C29.6238 105.777 38.4149 105.777 43.8371 100.304Z" fill="#578BFF"/>
<path d="M71.6066 100.304C77.0288 94.8312 77.0288 85.9579 71.6066 80.485C66.1844 75.0121 57.3933 75.0121 51.9711 80.485C46.5489 85.9579 46.5489 94.8312 51.9711 100.304C57.3933 105.777 66.1844 105.777 71.6066 100.304Z" fill="#578BFF"/>
<path d="M92.7475 104.034C100.211 102.256 104.832 94.708 103.07 87.1752C101.309 79.6425 93.8305 74.9775 86.3675 76.7558C78.9045 78.534 74.2827 86.0821 76.0445 93.6149C77.8063 101.148 85.2845 105.813 92.7475 104.034Z" fill="#578BFF"/>
</svg>
