<svg width="54" height="54" viewBox="0 0 54 54" fill="none" xmlns="http://www.w3.org/2000/svg">
<mask id="path-1-inside-1_1915_6291" fill="white">
<path d="M0 26.8475C0 12.02 12.02 0 26.8475 0C41.6749 0 53.6949 12.02 53.6949 26.8475C53.6949 41.6749 41.6749 53.6949 26.8475 53.6949C12.02 53.6949 0 41.6749 0 26.8475Z"/>
</mask>
<path d="M0 26.8475C0 12.02 12.02 0 26.8475 0C41.6749 0 53.6949 12.02 53.6949 26.8475C53.6949 41.6749 41.6749 53.6949 26.8475 53.6949C12.02 53.6949 0 41.6749 0 26.8475Z" fill="white"/>
<path d="M0 26.8475M53.6949 26.8475M53.6949 26.8475M0 26.8475M26.8475 0M53.6949 26.8475M26.8475 53.6949M0 26.8475M26.8475 53.6949V52.7186C12.5592 52.7186 0.976271 41.1357 0.976271 26.8475H0H-0.976271C-0.976271 42.2141 11.4808 54.6712 26.8475 54.6712V53.6949ZM53.6949 26.8475H52.7186C52.7186 41.1357 41.1357 52.7186 26.8475 52.7186V53.6949V54.6712C42.2141 54.6712 54.6712 42.2141 54.6712 26.8475H53.6949ZM26.8475 0V0.976271C41.1357 0.976271 52.7186 12.5592 52.7186 26.8475H53.6949H54.6712C54.6712 11.4808 42.2141 -0.976271 26.8475 -0.976271V0ZM26.8475 0V-0.976271C11.4808 -0.976271 -0.976271 11.4808 -0.976271 26.8475H0H0.976271C0.976271 12.5592 12.5592 0.976271 26.8475 0.976271V0Z" fill="#2563EB" fill-opacity="0.28" mask="url(#path-1-inside-1_1915_6291)"/>
<path d="M32.9509 35.9994C32.9509 33.8417 32.0937 31.7723 30.568 30.2466C29.0423 28.7209 26.973 27.8638 24.8153 27.8638C22.6576 27.8638 20.5883 28.7209 19.0625 30.2466C17.5368 31.7723 16.6797 33.8417 16.6797 35.9994" stroke="#2563EB" stroke-width="1.52542" stroke-linecap="round" stroke-linejoin="round"/>
<path d="M24.8152 27.8643C27.6234 27.8643 29.9 25.5878 29.9 22.7796C29.9 19.9713 27.6234 17.6948 24.8152 17.6948C22.007 17.6948 19.7305 19.9713 19.7305 22.7796C19.7305 25.5878 22.007 27.8643 24.8152 27.8643Z" stroke="#2563EB" stroke-width="1.52542" stroke-linecap="round" stroke-linejoin="round"/>
<path d="M37.0157 34.9825C37.0157 31.5554 34.9818 28.3724 32.9479 26.8469C33.6164 26.3453 34.151 25.6867 34.5044 24.9292C34.8577 24.1718 35.0189 23.3389 34.9736 22.5044C34.9284 21.6698 34.6781 20.8592 34.245 20.1444C33.8118 19.4296 33.2091 18.8326 32.4902 18.4062" stroke="#2563EB" stroke-width="1.52542" stroke-linecap="round" stroke-linejoin="round"/>
</svg>
