<svg width="34" height="34" viewBox="0 0 34 34" fill="none" xmlns="http://www.w3.org/2000/svg">
<path d="M15.5801 24.0834L18.4134 26.9167C18.6925 27.1958 19.0238 27.4172 19.3884 27.5682C19.753 27.7192 20.1438 27.797 20.5384 27.797C20.9331 27.797 21.3238 27.7192 21.6885 27.5682C22.0531 27.4172 22.3844 27.1958 22.6634 26.9167C22.9425 26.6377 23.1638 26.3064 23.3149 25.9418C23.4659 25.5772 23.5436 25.1864 23.5436 24.7917C23.5436 24.3971 23.4659 24.0063 23.3149 23.6417C23.1638 23.2771 22.9425 22.9458 22.6634 22.6667" stroke="#2563EB" stroke-width="2.13559" stroke-linecap="round" stroke-linejoin="round"/>
<path d="M19.8288 19.8333L23.3704 23.375C23.934 23.9386 24.6984 24.2552 25.4954 24.2552C26.2925 24.2552 27.0569 23.9386 27.6204 23.375C28.184 22.8114 28.5006 22.047 28.5006 21.25C28.5006 20.453 28.184 19.6886 27.6204 19.125L22.1238 13.6283C21.3269 12.8324 20.2467 12.3854 19.1204 12.3854C17.9942 12.3854 16.914 12.8324 16.1171 13.6283L14.8704 14.875C14.3069 15.4386 13.5425 15.7552 12.7454 15.7552C11.9484 15.7552 11.184 15.4386 10.6204 14.875C10.0569 14.3114 9.74023 13.547 9.74023 12.75C9.74023 11.953 10.0569 11.1886 10.6204 10.625L14.6013 6.64415C15.8936 5.35519 17.579 4.5341 19.3905 4.31086C21.2021 4.08762 23.0363 4.47499 24.6029 5.41165L25.2688 5.80831C25.872 6.17238 26.5892 6.29865 27.2804 6.16248L29.7454 5.66665" stroke="#2563EB" stroke-width="2.13559" stroke-linecap="round" stroke-linejoin="round"/>
<path d="M29.7467 4.25L31.1634 19.8333H28.3301" stroke="#2563EB" stroke-width="2.13559" stroke-linecap="round" stroke-linejoin="round"/>
<path d="M4.24674 4.25L2.83008 19.8333L12.0384 29.0417C12.602 29.6053 13.3664 29.9219 14.1634 29.9219C14.9604 29.9219 15.7248 29.6053 16.2884 29.0417C16.852 28.4781 17.1686 27.7137 17.1686 26.9167C17.1686 26.1196 16.852 25.3553 16.2884 24.7917" stroke="#2563EB" stroke-width="2.13559" stroke-linecap="round" stroke-linejoin="round"/>
<path d="M4.24805 5.66675H15.5814" stroke="#2563EB" stroke-width="2.13559" stroke-linecap="round" stroke-linejoin="round"/>
</svg>
