<svg width="34" height="34" viewBox="0 0 34 34" fill="none" xmlns="http://www.w3.org/2000/svg">
<path d="M22.668 22.6666L26.918 11.3333L31.168 22.6666C29.9355 23.5874 28.448 24.0833 26.918 24.0833C25.388 24.0833 23.9005 23.5874 22.668 22.6666Z" stroke="#2563EB" stroke-width="2.13559" stroke-linecap="round" stroke-linejoin="round"/>
<path d="M2.83203 22.6666L7.08203 11.3333L11.332 22.6666C10.0995 23.5874 8.61203 24.0833 7.08203 24.0833C5.55203 24.0833 4.06453 23.5874 2.83203 22.6666Z" stroke="#2563EB" stroke-width="2.13559" stroke-linecap="round" stroke-linejoin="round"/>
<path d="M9.91797 29.75H24.0846" stroke="#2563EB" stroke-width="2.13559" stroke-linecap="round" stroke-linejoin="round"/>
<path d="M17 4.25V29.75" stroke="#2563EB" stroke-width="2.13559" stroke-linecap="round" stroke-linejoin="round"/>
<path d="M4.25 9.91659H7.08333C9.91667 9.91659 14.1667 8.49992 17 7.08325C19.8333 8.49992 24.0833 9.91659 26.9167 9.91659H29.75" stroke="#2563EB" stroke-width="2.13559" stroke-linecap="round" stroke-linejoin="round"/>
</svg>
