<svg width="125" height="124" viewBox="0 0 125 124" fill="none" xmlns="http://www.w3.org/2000/svg">
<path d="M62.366 103.442C85.5856 103.442 104.409 94.1176 104.409 82.6153C104.409 71.113 85.5856 61.7886 62.366 61.7886C39.1464 61.7886 20.3232 71.113 20.3232 82.6153C20.3232 94.1176 39.1464 103.442 62.366 103.442Z" fill="#FFFF9A"/>
<path d="M62.366 61.7888C85.5856 61.7888 104.409 55.5726 104.409 47.9044C104.409 40.2363 85.5856 34.02 62.366 34.02C39.1464 34.02 20.3232 40.2363 20.3232 47.9044C20.3232 55.5726 39.1464 61.7888 62.366 61.7888Z" fill="#FFFF9A"/>
<path d="M104.409 27.0776C104.409 23.2432 85.5855 20.1353 62.366 20.1353C39.1465 20.1353 20.3232 23.2432 20.3232 27.0776C20.3232 30.9119 39.1462 34.0199 62.366 34.0199C85.5858 34.0199 104.409 30.9117 104.409 27.0776Z" fill="#FFFF9A"/>
</svg>
