<svg width="54" height="54" viewBox="0 0 54 54" fill="none" xmlns="http://www.w3.org/2000/svg">
<mask id="path-1-inside-1_1915_6262" fill="white">
<path d="M0 26.8475C0 12.02 12.02 0 26.8475 0C41.6749 0 53.6949 12.02 53.6949 26.8475C53.6949 41.6749 41.6749 53.6949 26.8475 53.6949C12.02 53.6949 0 41.6749 0 26.8475Z"/>
</mask>
<path d="M0 26.8475C0 12.02 12.02 0 26.8475 0C41.6749 0 53.6949 12.02 53.6949 26.8475C53.6949 41.6749 41.6749 53.6949 26.8475 53.6949C12.02 53.6949 0 41.6749 0 26.8475Z" fill="white"/>
<path d="M0 26.8475M53.6949 26.8475M53.6949 26.8475M0 26.8475M26.8475 0M53.6949 26.8475M26.8475 53.6949M0 26.8475M26.8475 53.6949V52.7186C12.5592 52.7186 0.976271 41.1357 0.976271 26.8475H0H-0.976271C-0.976271 42.2141 11.4808 54.6712 26.8475 54.6712V53.6949ZM53.6949 26.8475H52.7186C52.7186 41.1357 41.1357 52.7186 26.8475 52.7186V53.6949V54.6712C42.2141 54.6712 54.6712 42.2141 54.6712 26.8475H53.6949ZM26.8475 0V0.976271C41.1357 0.976271 52.7186 12.5592 52.7186 26.8475H53.6949H54.6712C54.6712 11.4808 42.2141 -0.976271 26.8475 -0.976271V0ZM26.8475 0V-0.976271C11.4808 -0.976271 -0.976271 11.4808 -0.976271 26.8475H0H0.976271C0.976271 12.5592 12.5592 0.976271 26.8475 0.976271V0Z" fill="#2563EB" fill-opacity="0.28" mask="url(#path-1-inside-1_1915_6262)"/>
<path d="M36.4276 25.7508C36.6097 25.6705 36.7642 25.5385 36.872 25.3712C36.9798 25.204 37.0361 25.0088 37.0341 24.8098C37.032 24.6108 36.9716 24.4169 36.8604 24.2519C36.7492 24.0869 36.592 23.9581 36.4083 23.8816L27.692 19.9114C27.4271 19.7906 27.1392 19.728 26.848 19.728C26.5567 19.728 26.2689 19.7906 26.0039 19.9114L17.2887 23.8775C17.1076 23.9568 16.9536 24.0872 16.8454 24.2526C16.7373 24.418 16.6797 24.6114 16.6797 24.8091C16.6797 25.0067 16.7373 25.2001 16.8454 25.3655C16.9536 25.531 17.1076 25.6613 17.2887 25.7406L26.0039 29.7148C26.2689 29.8357 26.5567 29.8982 26.848 29.8982C27.1392 29.8982 27.4271 29.8357 27.692 29.7148L36.4276 25.7508Z" stroke="#2563EB" stroke-width="1.52542" stroke-linecap="round" stroke-linejoin="round"/>
<path d="M37.0156 24.813V30.9147" stroke="white" stroke-width="1.52542" stroke-linecap="round" stroke-linejoin="round"/>
<path d="M20.7461 27.3564V30.9158C20.7461 31.7249 21.3889 32.5009 22.5332 33.073C23.6775 33.6452 25.2295 33.9666 26.8478 33.9666C28.4661 33.9666 30.018 33.6452 31.1623 33.073C32.3066 32.5009 32.9495 31.7249 32.9495 30.9158V27.3564" stroke="#2563EB" stroke-width="1.52542" stroke-linecap="round" stroke-linejoin="round"/>
</svg>
