<svg width="34" height="34" viewBox="0 0 34 34" fill="none" xmlns="http://www.w3.org/2000/svg">
<path d="M16.9998 7.08332C17.0015 6.5167 16.8899 5.95546 16.6714 5.43262C16.453 4.90978 16.1323 4.43589 15.7281 4.03883C15.3238 3.64177 14.8443 3.32954 14.3176 3.12053C13.7909 2.91151 13.2278 2.80992 12.6613 2.82172C12.0948 2.83353 11.5364 2.9585 11.0189 3.18928C10.5014 3.42007 10.0352 3.752 9.64791 4.16556C9.26057 4.57913 8.95984 5.06597 8.76341 5.59746C8.56698 6.12894 8.47881 6.69435 8.50409 7.26041C7.67138 7.47452 6.8983 7.87531 6.24342 8.43243C5.58853 8.98955 5.06901 9.68839 4.7242 10.476C4.37939 11.2637 4.21833 12.1194 4.25323 12.9785C4.28812 13.8376 4.51804 14.6775 4.92559 15.4346C4.20901 16.0167 3.64553 16.7651 3.28415 17.6147C2.92278 18.4643 2.77446 19.3893 2.85211 20.3093C2.92975 21.2293 3.231 22.1164 3.72965 22.8934C4.2283 23.6704 4.90925 24.3138 5.71326 24.7676C5.61397 25.5357 5.67322 26.3161 5.88735 27.0605C6.10147 27.8049 6.46593 28.4974 6.9582 29.0954C7.45048 29.6934 8.06012 30.1842 8.74948 30.5373C9.43885 30.8905 10.1933 31.0986 10.9662 31.1487C11.7392 31.1989 12.5142 31.09 13.2434 30.8289C13.9726 30.5678 14.6406 30.16 15.206 29.6306C15.7714 29.1013 16.2223 28.4616 16.5309 27.7512C16.8394 27.0407 16.999 26.2745 16.9998 25.5V7.08332Z" stroke="#2563EB" stroke-width="2.13559" stroke-linecap="round" stroke-linejoin="round"/>
<path d="M17 7.08332C16.9983 6.5167 17.11 5.95546 17.3284 5.43262C17.5468 4.90978 17.8676 4.43589 18.2718 4.03883C18.676 3.64177 19.1556 3.32954 19.6823 3.12053C20.2089 2.91151 20.7721 2.80992 21.3386 2.82172C21.9051 2.83353 22.4635 2.9585 22.981 3.18928C23.4985 3.42007 23.9646 3.752 24.3519 4.16556C24.7393 4.57913 25.04 5.06597 25.2364 5.59746C25.4329 6.12894 25.521 6.69435 25.4958 7.26041C26.3285 7.47452 27.1016 7.87531 27.7564 8.43243C28.4113 8.98955 28.9308 9.68839 29.2757 10.476C29.6205 11.2637 29.7815 12.1194 29.7466 12.9785C29.7117 13.8376 29.4818 14.6775 29.0743 15.4346C29.7908 16.0167 30.3543 16.7651 30.7157 17.6147C31.0771 18.4643 31.2254 19.3893 31.1478 20.3093C31.0701 21.2293 30.7689 22.1164 30.2702 22.8934C29.7716 23.6704 29.0906 24.3138 28.2866 24.7676C28.3859 25.5357 28.3266 26.3161 28.1125 27.0605C27.8984 27.8049 27.5339 28.4974 27.0417 29.0954C26.5494 29.6934 25.9397 30.1842 25.2504 30.5373C24.561 30.8905 23.8066 31.0986 23.0336 31.1487C22.2607 31.1989 21.4857 31.09 20.7565 30.8289C20.0272 30.5678 19.3593 30.16 18.7939 29.6306C18.2284 29.1013 17.7775 28.4616 17.469 27.7512C17.1605 27.0407 17.0008 26.2745 17 25.5V7.08332Z" stroke="#2563EB" stroke-width="2.13559" stroke-linecap="round" stroke-linejoin="round"/>
<path d="M21.25 18.4167C20.0606 17.9983 19.022 17.2366 18.2655 16.2279C17.5091 15.2193 17.0686 14.0089 17 12.75C16.9314 14.0089 16.4909 15.2193 15.7345 16.2279C14.978 17.2366 13.9394 17.9983 12.75 18.4167" stroke="#2563EB" stroke-width="2.13559" stroke-linecap="round" stroke-linejoin="round"/>
<path d="M24.9297 9.20841C25.2726 8.61424 25.4665 7.94591 25.4949 7.2605" stroke="#2563EB" stroke-width="2.13559" stroke-linecap="round" stroke-linejoin="round"/>
<path d="M8.50391 7.2605C8.53192 7.94579 8.72537 8.61412 9.06774 9.20841" stroke="#2563EB" stroke-width="2.13559" stroke-linecap="round" stroke-linejoin="round"/>
<path d="M4.92383 15.436C5.18299 15.2249 5.46032 15.0372 5.75258 14.875" stroke="#2563EB" stroke-width="2.13559" stroke-linecap="round" stroke-linejoin="round"/>
<path d="M28.2461 14.875C28.5383 15.0372 28.8157 15.2249 29.0748 15.436" stroke="#2563EB" stroke-width="2.13559" stroke-linecap="round" stroke-linejoin="round"/>
<path d="M8.50143 25.4998C7.5251 25.5003 6.56522 25.2485 5.71484 24.7688" stroke="#2563EB" stroke-width="2.13559" stroke-linecap="round" stroke-linejoin="round"/>
<path d="M28.2866 24.7688C27.4362 25.2485 26.4763 25.5003 25.5 25.4998" stroke="#2563EB" stroke-width="2.13559" stroke-linecap="round" stroke-linejoin="round"/>
</svg>
