<svg width="31" height="31" viewBox="0 0 31 31" fill="none" xmlns="http://www.w3.org/2000/svg">
<path d="M19.375 11.625H24.2188M19.375 15.5H24.2188M19.375 19.375H24.2188M5.8125 25.1875H25.1875C26.7926 25.1875 28.0938 23.8863 28.0938 22.2812V8.71875C28.0938 7.11367 26.7926 5.8125 25.1875 5.8125H5.8125C4.20742 5.8125 2.90625 7.11367 2.90625 8.71875V22.2812C2.90625 23.8863 4.20742 25.1875 5.8125 25.1875ZM13.5625 12.1094C13.5625 13.4469 12.4782 14.5312 11.1406 14.5312C9.80306 14.5312 8.71875 13.4469 8.71875 12.1094C8.71875 10.7718 9.80306 9.6875 11.1406 9.6875C12.4782 9.6875 13.5625 10.7718 13.5625 12.1094ZM15.2338 20.2938C14.0132 20.944 12.6199 21.3125 11.1404 21.3125C9.66099 21.3125 8.26762 20.944 7.04709 20.2938C7.6594 18.6268 9.26102 17.4375 11.1404 17.4375C13.0198 17.4375 14.6214 18.6268 15.2338 20.2938Z" stroke="#2563EB" stroke-width="1.5" stroke-linecap="round" stroke-linejoin="round"/>
</svg>
