<svg width="44" height="44" viewBox="0 0 44 44" fill="none" xmlns="http://www.w3.org/2000/svg">
<mask id="path-1-inside-1_1734_5166" fill="white">
<path d="M0 22C0 9.84974 9.84974 0 22 0C34.1503 0 44 9.84974 44 22C44 34.1503 34.1503 44 22 44C9.84974 44 0 34.1503 0 22Z"/>
</mask>
<path d="M0 22M44 22M44 22M0 22M22 0M44 22M22 44M0 22M22 44V43.2C10.2916 43.2 0.8 33.7084 0.8 22H0H-0.8C-0.8 34.5921 9.40791 44.8 22 44.8V44ZM44 22H43.2C43.2 33.7084 33.7084 43.2 22 43.2V44V44.8C34.5921 44.8 44.8 34.5921 44.8 22H44ZM22 0V0.8C33.7084 0.8 43.2 10.2916 43.2 22H44H44.8C44.8 9.40791 34.5921 -0.8 22 -0.8V0ZM22 0V-0.8C9.40791 -0.8 -0.8 9.40791 -0.8 22H0H0.8C0.8 10.2916 10.2916 0.8 22 0.8V0Z" fill="#2563EB" mask="url(#path-1-inside-1_1734_5166)"/>
<path d="M25.3337 29.5V27.8333C25.3337 26.9493 24.9825 26.1014 24.3573 25.4763C23.7322 24.8512 22.8844 24.5 22.0003 24.5H17.0003C16.1163 24.5 15.2684 24.8512 14.6433 25.4763C14.0182 26.1014 13.667 26.9493 13.667 27.8333V29.5" stroke="#2563EB" stroke-width="1.25" stroke-linecap="round" stroke-linejoin="round"/>
<path d="M19.5003 21.1667C21.3413 21.1667 22.8337 19.6743 22.8337 17.8333C22.8337 15.9924 21.3413 14.5 19.5003 14.5C17.6594 14.5 16.167 15.9924 16.167 17.8333C16.167 19.6743 17.6594 21.1667 19.5003 21.1667Z" stroke="#2563EB" stroke-width="1.25" stroke-linecap="round" stroke-linejoin="round"/>
<path d="M30.333 29.5001V27.8334C30.3325 27.0948 30.0866 26.3774 29.6341 25.7937C29.1817 25.2099 28.5481 24.793 27.833 24.6084" stroke="#2563EB" stroke-width="1.25" stroke-linecap="round" stroke-linejoin="round"/>
<path d="M25.333 14.6084C26.05 14.792 26.6855 15.209 27.1394 15.7937C27.5932 16.3783 27.8395 17.0974 27.8395 17.8376C27.8395 18.5777 27.5932 19.2968 27.1394 19.8815C26.6855 20.4661 26.05 20.8831 25.333 21.0667" stroke="#2563EB" stroke-width="1.25" stroke-linecap="round" stroke-linejoin="round"/>
</svg>
