<svg width="44" height="44" viewBox="0 0 44 44" fill="none" xmlns="http://www.w3.org/2000/svg">
<mask id="path-1-inside-1_1734_5294" fill="white">
<path d="M0 22C0 9.84974 9.84974 0 22 0C34.1503 0 44 9.84974 44 22C44 34.1503 34.1503 44 22 44C9.84974 44 0 34.1503 0 22Z"/>
</mask>
<path d="M0 22M44 22M44 22M0 22M22 0M44 22M22 44M0 22M22 44V43.2C10.2916 43.2 0.8 33.7084 0.8 22H0H-0.8C-0.8 34.5921 9.40791 44.8 22 44.8V44ZM44 22H43.2C43.2 33.7084 33.7084 43.2 22 43.2V44V44.8C34.5921 44.8 44.8 34.5921 44.8 22H44ZM22 0V0.8C33.7084 0.8 43.2 10.2916 43.2 22H44H44.8C44.8 9.40791 34.5921 -0.8 22 -0.8V0ZM22 0V-0.8C9.40791 -0.8 -0.8 9.40791 -0.8 22H0H0.8C0.8 10.2916 10.2916 0.8 22 0.8V0Z" fill="#2563EB" fill-opacity="0.28" mask="url(#path-1-inside-1_1734_5294)"/>
<path d="M21.604 13.9125C21.6406 13.8387 21.697 13.7766 21.7669 13.7332C21.8369 13.6898 21.9175 13.6667 21.9999 13.6667C22.0822 13.6667 22.1629 13.6898 22.2328 13.7332C22.3028 13.7766 22.3592 13.8387 22.3957 13.9125L24.3207 17.8117C24.4475 18.0683 24.6347 18.2903 24.8662 18.4587C25.0977 18.6271 25.3666 18.7368 25.6499 18.7783L29.9549 19.4083C30.0364 19.4201 30.1131 19.4546 30.1761 19.5077C30.2391 19.5608 30.2861 19.6304 30.3116 19.7088C30.337 19.7872 30.3401 19.8712 30.3204 19.9512C30.3006 20.0312 30.2589 20.1041 30.1999 20.1617L27.0865 23.1933C26.8812 23.3934 26.7276 23.6404 26.6389 23.913C26.5502 24.1856 26.5291 24.4757 26.5774 24.7583L27.3124 29.0417C27.3268 29.1232 27.318 29.2071 27.287 29.2839C27.2559 29.3607 27.204 29.4272 27.137 29.4758C27.07 29.5245 26.9907 29.5533 26.9081 29.5591C26.8255 29.5648 26.743 29.5472 26.6699 29.5083L22.8215 27.485C22.568 27.3518 22.2859 27.2823 21.9995 27.2823C21.7131 27.2823 21.4309 27.3518 21.1774 27.485L17.3299 29.5083C17.2568 29.547 17.1744 29.5644 17.0919 29.5585C17.0095 29.5527 16.9303 29.5238 16.8635 29.4752C16.7966 29.4266 16.7447 29.3601 16.7138 29.2835C16.6828 29.2069 16.6739 29.1231 16.6882 29.0417L17.4224 24.7592C17.4709 24.4764 17.4499 24.1862 17.3612 23.9134C17.2724 23.6406 17.1187 23.3935 16.9132 23.1933L13.7999 20.1625C13.7404 20.105 13.6982 20.032 13.6782 19.9517C13.6581 19.8715 13.6611 19.7872 13.6866 19.7085C13.7121 19.6298 13.7593 19.5599 13.8226 19.5066C13.8859 19.4534 13.963 19.4191 14.0449 19.4075L18.349 18.7783C18.6326 18.7371 18.9019 18.6275 19.1337 18.4591C19.3655 18.2908 19.553 18.0686 19.6799 17.8117L21.604 13.9125Z" stroke="#2563EB" stroke-width="1.25" stroke-linecap="round" stroke-linejoin="round"/>
</svg>
