<svg width="31" height="31" viewBox="0 0 31 31" fill="none" xmlns="http://www.w3.org/2000/svg">
<path d="M19.3704 2.58276H7.74544C7.0603 2.58276 6.40322 2.85494 5.91875 3.3394C5.43428 3.82387 5.16211 4.48095 5.16211 5.1661V25.8328C5.16211 26.5179 5.43428 27.175 5.91875 27.6595C6.40322 28.1439 7.0603 28.4161 7.74544 28.4161H23.2454C23.9306 28.4161 24.5877 28.1439 25.0721 27.6595C25.5566 27.175 25.8288 26.5179 25.8288 25.8328V9.0411L19.3704 2.58276Z" stroke="#2563EB" stroke-width="1.52542" stroke-linecap="round" stroke-linejoin="round"/>
<path d="M18.084 2.58276V7.74943C18.084 8.43457 18.3562 9.09165 18.8406 9.57612C19.3251 10.0606 19.9822 10.3328 20.6673 10.3328H25.834" fill="white"/>
<path d="M18.084 2.58276V7.74943C18.084 8.43457 18.3562 9.09165 18.8406 9.57612C19.3251 10.0606 19.9822 10.3328 20.6673 10.3328H25.834" stroke="#2563EB" stroke-width="1.52542" stroke-linecap="round" stroke-linejoin="round"/>
<path d="M12.9173 11.6248H10.334" stroke="#2563EB" stroke-width="1.52542" stroke-linecap="round" stroke-linejoin="round"/>
<path d="M20.6673 16.7917H10.334" stroke="#2563EB" stroke-width="1.52542" stroke-linecap="round" stroke-linejoin="round"/>
<path d="M20.6673 21.9578H10.334" stroke="#2563EB" stroke-width="1.52542" stroke-linecap="round" stroke-linejoin="round"/>
</svg>
